<svg xmlns="http://www.w3.org/2000/svg" width="600" height="600" fill="none"><path fill="#231F20" d="M8.33 13.4c4.86-2.05 8.93-1.41 9.58-.7l6.96 7.74c5.33 5.94 16.49 6.86 24.87 2.05 4.43-2.54 8.95-5.33 13.44-8.29 3.53-2.34 8.07-2.6 9.92-.57 2.9 3.18 5.88 6.5 8.96 9.94 6.3 7.07 18.17 8.46 26.47 3.11 4.15-2.7 8.44-5.59 12.8-8.61 3.2-2.24 7.95-1.12 10.84 2.55a1119.3 1119.3 0 0 1 20.49 26.78 5.99 5.99 0 1 0 9.64-7.14 1123.26 1123.26 0 0 0-20.7-27.06c-6.82-8.68-18.75-10.85-27.13-4.97A532.37 532.37 0 0 1 102 16.6c-3.6 2.33-8.86 1.35-10.99-1.03-3.1-3.47-6.1-6.81-9.03-10.02C76.1-.93 65.16-1.51 56.56 4.19a242.53 242.53 0 0 1-12.79 7.89c-4.22 2.43-9 1.43-9.97.34l-6.96-7.74C21.37-1.38 11.26-.86 3.67 2.34a6 6 0 1 0 4.66 11.05Zm302.71 3.5c.76 2.31 1.5 4.63 2.2 6.89 1.42 4.83-1.97 11.23-7.4 13.97a171.3 171.3 0 0 0-20.46 12.08 6 6 0 0 0 6.81 9.88c6-4.13 12.4-7.91 19.05-11.24 10.63-5.37 16.57-17.71 13.49-28.15-.74-2.41-1.5-4.81-2.33-7.28a8.06 8.06 0 0 1 .69-6.36c1.56-3 4.6-5.33 8.34-6.4l.6-.17.46-.12h-19.4c-.22.38-.44.76-.64 1.15-2.66 5.1-3.15 10.71-1.41 15.75Zm-127.48-4.83a6 6 0 0 1 8.05-2.69l25.33 12.64a6 6 0 0 1-5.36 10.74l-25.33-12.64a6 6 0 0 1-2.69-8.05ZM31.73 115.05h-.27a6 6 0 0 1-6-5.73l-2.63-59.4a6 6 0 0 1 12-.53l2.63 59.4a6 6 0 0 1-5.73 6.26Zm275.42-29.93 26.1 10.94a6 6 0 1 1-4.64 11.07l-26.1-10.95a6 6 0 1 1 4.64-11.06ZM513.73 204.5l-19.63-20.39a6 6 0 0 1 8.65-8.32l19.62 20.4a6 6 0 0 1-8.64 8.32ZM241.7 488.95l8.6-6a6 6 0 1 1 6.86 9.85l-8.6 6a5.97 5.97 0 0 1-8.35-1.5 6 6 0 0 1 1.5-8.35Zm14.2-142.75a6 6 0 0 0-8.37 1.46l-6.02 8.57a6 6 0 1 0 9.82 6.9l6.02-8.57a6 6 0 0 0-1.46-8.36ZM61.72 332.79a7.93 7.93 0 1 1-15.86 0 7.93 7.93 0 0 1 15.86 0Zm175.91 55.45a6 6 0 0 0-7.34 4.27l-7.22 27.37a6 6 0 1 0 11.6 3.06l7.23-27.37a6 6 0 0 0-4.27-7.33ZM75.2 452.43a6 6 0 0 1 10.15 6.4l-5.59 8.87a6 6 0 1 1-10.15-6.4l5.6-8.87Zm-42.06-18.3A7.93 7.93 0 1 0 32 418.32a7.93 7.93 0 0 0 1.13 15.81Zm33.3-185.45a6 6 0 0 1 8.47.43l7.03 7.78a6 6 0 0 1-8.91 8.04l-7.02-7.78a6 6 0 0 1 .43-8.47Zm249.65 33.76-10 3.14a6 6 0 1 0 3.59 11.45l10-3.14a6 6 0 1 0-3.6-11.45Zm17.47 71.81a7.93 7.93 0 1 0 0-15.85 7.93 7.93 0 0 0 0 15.86Zm-51.63-71.77a6 6 0 1 1-3.64 11.44 272.86 272.86 0 0 0-23.65-6.36c-6.05-1.36-13.45 2.1-15.24 7.13-.86 2.34-1.68 4.63-2.48 6.91-3.57 9.86-13.8 16.88-24.22 16.88-.49 0-.97-.01-1.45-.04-7.32-.49-14.74-.64-22.09-.46a6 6 0 0 1-.3-12c7.71-.18 15.5-.03 23.16.48 5.56.36 11.7-3.63 13.6-8.88.8-2.3 1.64-4.64 2.5-6.98 3.8-10.66 17.15-17.43 29.13-14.75 8.29 1.83 16.6 4.06 24.68 6.63Zm.63 144.82 58.36 11.34a6 6 0 0 0 2.29-11.78l-58.37-11.34a6 6 0 0 0-2.28 11.78Zm9.58-299.95-10.06-2.93a6 6 0 1 1 3.36-11.52l10.06 2.93a6 6 0 0 1-3.36 11.52ZM82.18 511.02l-23.26 16.13a6 6 0 1 0 6.84 9.86l23.26-16.13a6 6 0 1 0-6.84-9.86Zm239.7-340.74a6 6 0 1 1 11.35 3.9l-19.35 56.23a6 6 0 0 1-11.34-3.9l19.34-56.23Zm-62.32 399.54a6 6 0 0 0 2.48-11.47l-54.15-24.55a6 6 0 1 0-4.96 10.92l54.15 24.56c.8.37 1.65.54 2.48.54ZM129.55 419.98l-40.27-43.75a6 6 0 1 1 8.83-8.12l40.27 43.74a6 6 0 1 1-8.83 8.13Zm47.57 75.35-10.29 1.95a6 6 0 1 0 2.23 11.8l10.3-1.96a6 6 0 1 0-2.24-11.79Zm7.12-109.22a7.93 7.93 0 1 1 0 15.86 7.93 7.93 0 0 1 0-15.86Zm60.73-166.59a6 6 0 0 0 7.76 3.44l9.77-3.78a6 6 0 1 0-4.32-11.19l-9.77 3.77a6 6 0 0 0-3.44 7.76Zm-43.37-.22a7.93 7.93 0 1 1 0-15.86 7.93 7.93 0 0 1 0 15.85Zm-158 20.95c7.57-7.73 12.2-20.05 10.8-28.67l-2.33-14.12c-.69-4.14 2.46-14.06 7.51-20.6 4.6-5.84 8.63-10.63 12.27-14.6 7.09-7.58 11.15-20.19 9.66-29.97a6 6 0 1 0-11.87 1.8c.96 6.25-1.92 15.03-6.59 20.02a269.4 269.4 0 0 0-12.93 15.36c-6.01 7.78-11.36 21.11-9.9 29.94l2.33 14.12c.7 4.3-2.36 13.05-7.55 18.34a585.46 585.46 0 0 1-13.42 13.55c-6.7 6.6-12.85 17-11.5 25.37l1.98 12.16a6 6 0 0 0 11.85-1.93l-1.98-12.15c-.4-2.45 2.25-9.17 8.03-14.87 4.53-4.37 9.04-9.01 13.63-13.75Zm202.93-115.98a6 6 0 0 0-11.43 3.65l8.64 26.96a6 6 0 0 0 11.43-3.66l-8.64-26.95Zm-69.72.05a5.98 5.98 0 0 1-7.9-3.07 6 6 0 0 1 3.06-7.92l54.4-24a6 6 0 0 1 4.84 10.99l-54.4 24Zm-37.37-3.98a6 6 0 0 0-8.25 2l-31.03 50.72a6 6 0 1 0 10.24 6.26l31.03-50.73a6 6 0 0 0-2-8.25ZM107.2 86.96a7.93 7.93 0 1 1-15.83 1.13 7.93 7.93 0 0 1 15.82-1.13Zm26.71 375.35a6 6 0 0 0 5.7 6.28l28.28 1.34a6 6 0 1 0 .57-11.99l-28.27-1.33a6 6 0 0 0-6.28 5.7ZM94.37 319.85a6 6 0 0 1-4.36-7.28l6.9-27.45a6 6 0 0 1 11.64 2.93l-6.9 27.45a6 6 0 0 1-7.28 4.35Zm63.57-78.48-21.69-18.19a6 6 0 0 0-7.71 9.2l21.69 18.18a5.98 5.98 0 0 0 8.45-.74 6 6 0 0 0-.74-8.45Zm-17.97 320.59a7.93 7.93 0 1 1 0-15.86 7.93 7.93 0 0 1 0 15.86Zm-2.01-227.87-10.4-1.26a6 6 0 1 0-1.44 11.91l10.4 1.26a6 6 0 1 0 1.44-11.91ZM545.32 72.64c.17 0 .34 0 .5-.02a6 6 0 0 0 5.49-6.47l-.87-10.45a6 6 0 1 0-11.96 1l.87 10.44a6 6 0 0 0 5.97 5.5Zm28.78 169.74-10.19-2.44a6 6 0 0 1 2.8-11.67l10.18 2.43a6 6 0 0 1-2.79 11.68Zm12.19 145.85a5.98 5.98 0 0 1-1.24-2.16l-8.73-26.93a6 6 0 0 1 11.42-3.7l8.72 26.93a6 6 0 0 1-10.17 5.86ZM509.04 122.5a7.93 7.93 0 1 0-14.65-6.07 7.93 7.93 0 0 0 14.65 6.07Zm-13.26 383.16 45.96 37.73a6 6 0 1 1-7.62 9.27l-45.95-37.73a6 6 0 1 1 7.61-9.27Zm71.74-398.99a6 6 0 0 0-1.77-11.63l-28.27-1.34a6 6 0 0 0-.57 11.99l28.27 1.34a6 6 0 0 0 2.34-.36ZM546 309.47a6 6 0 1 1 11.24 4.21l-20.85 55.68a6 6 0 0 1-11.24-4.2l20.85-55.7Zm32.12 223.27a6 6 0 0 0-.64 8.46l18.44 21.47a5.97 5.97 0 0 0 4.08 2.07v-15.73l-13.42-15.63a6 6 0 0 0-8.46-.64Zm-39.96 63.08a5.97 5.97 0 0 1-8.46-.57l-6.9-7.89a6 6 0 1 1 9.04-7.9l6.9 7.9a6 6 0 0 1-.58 8.46ZM249.66 4.98a6 6 0 0 0 8.03 2.72l9.4-4.64A5.97 5.97 0 0 0 269.96 0H249.5a5.98 5.98 0 0 0 .15 4.98Zm317.51 464.29c4.76 3.62 12.5 3.9 17.6.61a245.3 245.3 0 0 1 6.63-4.2 23.34 23.34 0 0 1 8.6-3.1v12.3c-.83.26-1.62.6-2.33 1.04a232.14 232.14 0 0 0-6.37 4.02c-9.39 6.07-22.6 5.58-31.43-1.14A240.47 240.47 0 0 0 541 465.63a6 6 0 1 1 6.4-10.16c6.82 4.3 13.47 8.94 19.76 13.8ZM269.81 595.02a6 6 0 0 0-8.04-2.72l-9.4 4.64a5.97 5.97 0 0 0-2.86 3.06h20.45a5.98 5.98 0 0 0-.15-4.98Zm87.89-12.6a6 6 0 0 1 1.73 11.88 215.54 215.54 0 0 0-26.94 5.7h-19.4c3.2-5.35 8.61-9.41 15.05-11.25a227.09 227.09 0 0 1 29.57-6.33Zm-330-86.23a232.38 232.38 0 0 0-13.38-17.68c-3.04-3.7-9.47-5.15-14.32-3.63v-12.3c8.62-1.38 18.1 1.63 23.56 8.28a243.7 243.7 0 0 1 14.05 18.56 6 6 0 1 1-9.9 6.77ZM4.38 563.32a6 6 0 0 0 .64-8.46L0 549v15.73l.47.02c1.38 0 2.77-.47 3.9-1.44Zm579.47-392.84a6 6 0 0 1-5.79-4.42l-7.45-27.31a6 6 0 0 1 11.58-3.16l7.45 27.31a6 6 0 0 1-5.8 7.58ZM400.24 287.02a6 6 0 0 0-7.14-4.58l-27.65 6a6 6 0 0 0 2.55 11.73l27.65-6a6 6 0 0 0 4.6-7.15Zm13.85-212.34 27.37 7.21a6 6 0 0 1-3.06 11.6l-27.37-7.2a6 6 0 0 1 3.06-11.61Zm44.4 170.17a6 6 0 0 0-.61-9.02l-.08-.06a192.03 192.03 0 0 0-11.62-8.58c-9.09-6.28-23.1-4.49-29.92 3.74-3.34 3.86-9.62 5.38-14.25 3.47a188.16 188.16 0 0 0-13.71-5.1s-6.35-1.55-7.67 3.64c-.4 1.79-.17 3.1-.17 3.1a6 6 0 0 0 4.21 4.7c2.44.8 7.32 2.47 12.73 4.74a23.53 23.53 0 0 0 8.98 1.74 25.4 25.4 0 0 0 19.04-8.54c2.99-3.61 9.9-4.41 13.97-1.6 3.64 2.47 7.51 5.34 10.92 8.06a6 6 0 0 0 8.18-.3Zm-15.61-62.66a7.93 7.93 0 1 1 15.86 0 7.93 7.93 0 0 1-15.86 0ZM387.86 373.2c.39 0 .78-.04 1.18-.12l58.31-11.6a6 6 0 1 0-2.34-11.77l-58.31 11.6a6 6 0 0 0 1.16 11.89Zm73.03-348.48L483.57 7.8a6 6 0 0 1 7.18 9.62l-22.69 16.92a5.98 5.98 0 0 1-8.4-1.22 6 6 0 0 1 1.23-8.4Zm59.67 240.09a6 6 0 0 0-7.73-3.49l-26.47 10.03a6 6 0 1 0 4.25 11.22l26.47-10.02a6 6 0 0 0 3.48-7.74ZM474.74 415a6 6 0 0 1 6.22-5.78l10.47.39a6 6 0 0 1-.44 11.99l-10.47-.4a6 6 0 0 1-5.77-6.22ZM371.85 535.67l25.36-12.57a6 6 0 0 0-5.33-10.75l-25.36 12.57a5.99 5.99 0 1 0 5.33 10.75Zm57.6-12.53a6 6 0 0 1 7.77-3.42l9.76 3.8a6 6 0 1 1-4.35 11.18l-9.76-3.8a6 6 0 0 1-3.42-7.76Zm-100.87-27.02c4.59 1.2 9.24 2.38 13.9 3.53 1.76.45 3.6.66 5.45.66 7.7 0 15.8-3.65 20-9.46 2.91-3.94 5.79-8.08 8.53-12.29 2.59-3.88 8.24-6.96 11.88-6.42 4.75.7 9.19 1.42 13.53 2.2 9.45 1.72 19.84-4.2 23.66-13.45a381.48 381.48 0 0 0 6.06-15.33c1.83-4.83 6.17-7.83 8.82-7.28 8.31 1.74 16.53 4 24.44 6.75a6 6 0 0 0 3.92-11.34c-8.38-2.9-17.1-5.31-25.91-7.15-8.8-1.84-18.67 4.66-22.5 14.81a378.15 378.15 0 0 1-5.9 14.93c-1.8 4.34-7 6.88-10.46 6.25-4.48-.8-9.02-1.54-13.93-2.27-8.24-1.18-18.4 3.83-23.63 11.7-2.64 4.05-5.39 8-8.19 11.8-2.36 3.26-8.58 5.34-12.85 4.25-4.65-1.15-9.25-2.3-13.83-3.5-7.75-1.96-18.44.13-24.88 4.87a6 6 0 0 0 7.12 9.66c3.58-2.64 10.5-3.99 14.77-2.92Zm59.95 81.63a7.93 7.93 0 1 1 0-15.86 7.93 7.93 0 0 1 0 15.86Zm-84.28-50.57a7.93 7.93 0 1 0 0 15.86 7.93 7.93 0 0 0 0-15.86Zm84.12-396.11a6 6 0 0 1 7.03-4.76l10.29 1.98a6 6 0 1 1-2.27 11.78l-10.29-1.98a6 6 0 0 1-4.76-7.02Zm-9.15 31.08-9.27 26.75a6 6 0 1 0 11.34 3.92l9.26-26.74a6 6 0 1 0-11.33-3.93ZM352.67 38.2l28.25 1.76a6 6 0 1 1-.74 11.98l-28.25-1.76a6 6 0 1 1 .74-11.98Z" opacity=".05"/></svg>